Coordinates
version=1
nRows=6
nColumns=46
inDegrees=yes

Units are S.I. units (second, meters, Newtons, ...)
Angles are in degrees.

endheader
time	pelvis_tilt	pelvis_list	pelvis_rotation	pelvis_tx	pelvis_ty	pelvis_tz	bb_angle	bb_tx	bb_ty	bb_tz	hip_flexion_r	hip_adduction_r	hip_rotation_r	knee_angle_r	knee_angle_r_beta	ankle_angle_r	subtalar_angle_r	mtp_angle_r	crank_angle_r	hip_flexion_l	hip_adduction_l	hip_rotation_l	knee_angle_l	knee_angle_l_beta	ankle_angle_l	subtalar_angle_l	mtp_angle_l	crank_angle_l	lumbar_extension	lumbar_bending	lumbar_rotation	arm_flex_r	arm_add_r	arm_rot_r	elbow_flex_r	pro_sup_r	wrist_flex_r	wrist_dev_r	arm_flex_l	arm_add_l	arm_rot_l	elbow_flex_l	pro_sup_l	wrist_flex_l	wrist_dev_l
      5.00000000	    -14.79423375	     -0.08392477	      8.40203420	      0.06480133	      1.10892805	     -0.27074400	      0.00000000	      0.50000000	      0.00000000	      0.25000000	     73.59785270	     -5.32155259	      6.06508772	    105.11797820	      1.83465482	    -20.73806648	    -14.12146187	      0.00000000	      0.00000000	     54.67811426	     -0.31566413	      0.03629749	     42.01979909	      0.73338385	     -6.38458996	     -2.84113186	      0.00000000	      0.00000000	    -66.83123299	     -0.30240808	     -1.42239668	     88.67427540	    -45.24276631	     35.90908224	     80.44573040	     38.91605990	      0.00000000	      0.00000000	     89.51364336	    -23.67012146	     36.47127662	     85.61507443	     34.28645530	      0.00000000	      0.00000000
      5.00500000	    -14.76301718	     -0.53699503	      7.97874724	      0.06483376	      1.10843165	     -0.27217239	      0.00000000	      0.50000000	      0.00000000	      0.25000000	     75.04772986	     -4.82725468	      6.06423612	    106.65888711	      1.86154876	    -20.28308629	    -14.19575200	      0.00000000	      0.00000000	     53.16875213	     -0.94319749	      0.12483825	     39.99709643	      0.69808102	     -7.02651889	     -2.13039345	      0.00000000	      0.00000000	    -66.68565904	      0.00490533	     -0.48810464	     88.82779256	    -45.05194059	     35.89060608	     80.54281090	     38.94245068	      0.00000000	      0.00000000	     89.48391946	    -23.82439536	     36.46993427	     85.55192614	     34.28273942	      0.00000000	      0.00000000
      5.01000000	    -14.39218687	     -0.48918762	      7.37777672	      0.06522281	      1.10918840	     -0.27328509	      0.00000000	      0.50000000	      0.00000000	      0.25000000	     76.07239960	     -4.40702211	      6.53390028	    108.09140012	      1.88655083	    -19.52856827	    -13.66795326	      0.00000000	      0.00000000	     51.02521565	     -1.47907741	     -0.54798137	     37.69185487	      0.65784697	     -8.06702079	     -0.89220601	      0.00000000	      0.00000000	    -67.04855056	     -0.21122344	      0.21032122	     88.86104378	    -45.40801543	     35.52570194	     81.03625520	     39.04359294	      0.00000000	      0.00000000	     89.49039759	    -23.54305499	     36.90139669	     85.14147265	     34.26492167	      0.00000000	      0.00000000
      5.01500000	    -14.43086201	     -0.99666185	      6.92377719	      0.06516454	      1.10902629	     -0.27470400	      0.00000000	      0.50000000	      0.00000000	      0.25000000	     77.52784938	     -3.89984027	      6.40446236	    109.34819945	      1.90848611	    -19.00081370	    -13.75135459	      0.00000000	      0.00000000	     49.66383650	     -2.17950996	     -0.57976779	     35.85589714	      0.62580346	     -8.84126061	     -0.09216749	      0.00000000	      0.00000000	    -66.92045081	      0.08001142	      1.14131637	     88.99634726	    -45.27559339	     35.49275513	     81.21047030	     39.07614201	      0.00000000	      0.00000000	     89.44275582	    -23.62107554	     36.91106235	     85.03915548	     34.25452165	      0.00000000	      0.00000000
      5.02000000	    -14.24335060	     -1.08805108	      6.20582025	      0.06533014	      1.10958051	     -0.27573237	      0.00000000	      0.50000000	      0.00000000	      0.25000000	     78.71312213	     -3.25522964	      6.75246389	    110.50938710	      1.92875266	    -18.31747341	    -13.38664029	      0.00000000	      0.00000000	     47.91062168	     -2.88195997	     -1.43683141	     33.97200011	      0.59292326	     -9.77111844	      1.07556974	      0.00000000	      0.00000000	    -67.17192871	     -0.19792421	      2.89505622	     88.95068296	    -47.32597699	     35.11954260	     82.90901956	     39.39872473	      0.00000000	      0.00000000	     89.46613371	    -21.94335427	     36.96402829	     84.00426780	     34.22450194	      0.00000000	      0.00000000
      5.02500000	    -14.33444606	     -1.43545782	      5.66177557	      0.06513280	      1.10979019	     -0.27706513	      0.00000000	      0.50000000	      0.00000000	      0.25000000	     80.17139496	     -2.75708788	      6.73352319	    111.52129181	      1.94641373	    -17.59874944	    -13.60520447	      0.00000000	      0.00000000	     46.64377641	     -3.54821250	     -1.87319413	     32.31784292	      0.56405277	    -10.76017869	      1.92809538	      0.00000000	      0.00000000	    -67.07644223	     -0.08546589	      3.61646606	     89.07540457	    -47.18082341	     35.03375216	     83.05695161	     39.41281563	      0.00000000	      0.00000000	     89.43041553	    -22.04593733	     37.05782840	     83.87886760	     34.22344085	      0.00000000	      0.00000000
